<svg width="110" height="19" viewBox="0 0 110 19" fill="none" xmlns="http://www.w3.org/2000/svg">
<path d="M11.096 15.336V18H0.932V0.647999H4.16V15.336H11.096ZM19.5119 10.428C19.5119 10.044 19.4559 9.684 19.3439 9.348C19.2399 9.004 19.0799 8.704 18.8639 8.448C18.6479 8.192 18.3719 7.992 18.0359 7.848C17.7079 7.696 17.3239 7.62 16.8839 7.62C16.0279 7.62 15.3519 7.864 14.8559 8.352C14.3679 8.84 14.0559 9.532 13.9199 10.428H19.5119ZM13.8599 12.216C13.9079 12.848 14.0199 13.396 14.1959 13.86C14.3719 14.316 14.6039 14.696 14.8919 15C15.1799 15.296 15.5199 15.52 15.9119 15.672C16.3119 15.816 16.7519 15.888 17.2319 15.888C17.7119 15.888 18.1239 15.832 18.4679 15.72C18.8199 15.608 19.1239 15.484 19.3799 15.348C19.6439 15.212 19.8719 15.088 20.0639 14.976C20.2639 14.864 20.4559 14.808 20.6399 14.808C20.8879 14.808 21.0719 14.9 21.1919 15.084L22.0439 16.164C21.7159 16.548 21.3479 16.872 20.9399 17.136C20.5319 17.392 20.1039 17.6 19.6559 17.76C19.2159 17.912 18.7639 18.02 18.2999 18.084C17.8439 18.148 17.3999 18.18 16.9679 18.18C16.1119 18.18 15.3159 18.04 14.5799 17.76C13.8439 17.472 13.2039 17.052 12.6599 16.5C12.1159 15.94 11.6879 15.252 11.3759 14.436C11.0639 13.612 10.9079 12.66 10.9079 11.58C10.9079 10.74 11.0439 9.952 11.3159 9.216C11.5879 8.472 11.9759 7.828 12.4799 7.284C12.9919 6.732 13.6119 6.296 14.3399 5.976C15.0759 5.656 15.9039 5.496 16.8239 5.496C17.5999 5.496 18.3159 5.62 18.9719 5.868C19.6279 6.116 20.1919 6.48 20.6639 6.96C21.1359 7.432 21.5039 8.016 21.7679 8.712C22.0399 9.4 22.1759 10.188 22.1759 11.076C22.1759 11.524 22.1279 11.828 22.0319 11.988C21.9359 12.14 21.7519 12.216 21.4799 12.216H13.8599ZM27.6671 18.192C26.5951 18.192 25.7711 17.892 25.1951 17.292C24.6271 16.684 24.3431 15.848 24.3431 14.784V7.908H23.0831C22.9231 7.908 22.7871 7.856 22.6751 7.752C22.5631 7.648 22.5071 7.492 22.5071 7.284V6.108L24.4871 5.784L25.1111 2.424C25.1511 2.264 25.2271 2.14 25.3391 2.052C25.4511 1.964 25.5951 1.92 25.7711 1.92H27.3071V5.796H32.4311L33.0671 2.424C33.1071 2.264 33.1791 2.14 33.2831 2.052C33.3951 1.964 33.5431 1.92 33.7271 1.92H35.2511V5.796H38.5391V7.908H35.2511V14.58C35.2511 14.964 35.3471 15.264 35.5391 15.48C35.7311 15.696 35.9911 15.804 36.3191 15.804C36.4951 15.804 36.6471 15.784 36.7751 15.744C36.9031 15.696 37.0111 15.648 37.0991 15.6C37.1951 15.552 37.2791 15.508 37.3511 15.468C37.4231 15.42 37.4951 15.396 37.5671 15.396C37.6551 15.396 37.7271 15.42 37.7831 15.468C37.8391 15.508 37.8991 15.572 37.9631 15.66L38.8511 17.1C38.4191 17.46 37.9231 17.732 37.3631 17.916C36.8031 18.1 36.2231 18.192 35.6231 18.192C34.5511 18.192 33.7271 17.892 33.1511 17.292C32.5751 16.684 32.2871 15.848 32.2871 14.784V7.908H27.3071V14.58C27.3071 14.964 27.3991 15.264 27.5831 15.48C27.7751 15.696 28.0351 15.804 28.3631 15.804C28.5471 15.804 28.6991 15.784 28.8191 15.744C28.9471 15.696 29.0551 15.648 29.1431 15.6C29.2391 15.552 29.3231 15.508 29.3951 15.468C29.4671 15.42 29.5391 15.396 29.6111 15.396C29.6991 15.396 29.7711 15.42 29.8271 15.468C29.8831 15.508 29.9431 15.572 30.0071 15.66L30.8951 17.1C30.4631 17.46 29.9671 17.732 29.4071 17.916C28.8471 18.1 28.2671 18.192 27.6671 18.192ZM47.5563 10.428C47.5563 10.044 47.5003 9.684 47.3883 9.348C47.2843 9.004 47.1243 8.704 46.9083 8.448C46.6923 8.192 46.4163 7.992 46.0803 7.848C45.7523 7.696 45.3683 7.62 44.9283 7.62C44.0723 7.62 43.3963 7.864 42.9003 8.352C42.4123 8.84 42.1003 9.532 41.9643 10.428H47.5563ZM41.9043 12.216C41.9523 12.848 42.0643 13.396 42.2403 13.86C42.4163 14.316 42.6483 14.696 42.9363 15C43.2243 15.296 43.5643 15.52 43.9563 15.672C44.3563 15.816 44.7963 15.888 45.2763 15.888C45.7563 15.888 46.1683 15.832 46.5123 15.72C46.8643 15.608 47.1683 15.484 47.4243 15.348C47.6883 15.212 47.9163 15.088 48.1083 14.976C48.3083 14.864 48.5003 14.808 48.6843 14.808C48.9323 14.808 49.1163 14.9 49.2363 15.084L50.0883 16.164C49.7603 16.548 49.3923 16.872 48.9843 17.136C48.5763 17.392 48.1483 17.6 47.7003 17.76C47.2603 17.912 46.8083 18.02 46.3443 18.084C45.8883 18.148 45.4443 18.18 45.0123 18.18C44.1563 18.18 43.3603 18.04 42.6243 17.76C41.8883 17.472 41.2483 17.052 40.7043 16.5C40.1603 15.94 39.7323 15.252 39.4203 14.436C39.1083 13.612 38.9523 12.66 38.9523 11.58C38.9523 10.74 39.0883 9.952 39.3603 9.216C39.6323 8.472 40.0203 7.828 40.5243 7.284C41.0363 6.732 41.6563 6.296 42.3843 5.976C43.1203 5.656 43.9483 5.496 44.8683 5.496C45.6443 5.496 46.3603 5.62 47.0163 5.868C47.6723 6.116 48.2363 6.48 48.7083 6.96C49.1803 7.432 49.5483 8.016 49.8123 8.712C50.0843 9.4 50.2203 10.188 50.2203 11.076C50.2203 11.524 50.1723 11.828 50.0763 11.988C49.9803 12.14 49.7963 12.216 49.5243 12.216H41.9043ZM54.5206 7.824C54.9046 7.088 55.3606 6.512 55.8886 6.096C56.4166 5.672 57.0406 5.46 57.7606 5.46C58.3286 5.46 58.7846 5.584 59.1286 5.832L58.9366 8.052C58.8966 8.196 58.8366 8.3 58.7566 8.364C58.6846 8.42 58.5846 8.448 58.4566 8.448C58.3366 8.448 58.1566 8.428 57.9166 8.388C57.6846 8.348 57.4566 8.328 57.2326 8.328C56.9046 8.328 56.6126 8.376 56.3566 8.472C56.1006 8.568 55.8686 8.708 55.6606 8.892C55.4606 9.068 55.2806 9.284 55.1206 9.54C54.9686 9.796 54.8246 10.088 54.6886 10.416V18H51.7246V5.688H53.4646C53.7686 5.688 53.9806 5.744 54.1006 5.856C54.2206 5.96 54.3006 6.152 54.3406 6.432L54.5206 7.824ZM72.3418 13.908C72.5178 13.908 72.6738 13.976 72.8098 14.112L74.0818 15.492C73.3778 16.364 72.5098 17.032 71.4778 17.496C70.4538 17.96 69.2218 18.192 67.7818 18.192C66.4938 18.192 65.3338 17.972 64.3018 17.532C63.2778 17.092 62.4018 16.48 61.6738 15.696C60.9458 14.912 60.3858 13.976 59.9938 12.888C59.6098 11.8 59.4178 10.612 59.4178 9.324C59.4178 8.02 59.6258 6.828 60.0418 5.748C60.4578 4.66 61.0418 3.724 61.7938 2.94C62.5538 2.156 63.4578 1.548 64.5058 1.116C65.5538 0.676 66.7138 0.456 67.9858 0.456C69.2498 0.456 70.3698 0.664 71.3458 1.08C72.3298 1.496 73.1658 2.04 73.8538 2.712L72.7738 4.212C72.7098 4.308 72.6258 4.392 72.5218 4.464C72.4258 4.536 72.2898 4.572 72.1138 4.572C71.9938 4.572 71.8698 4.54 71.7418 4.476C71.6138 4.404 71.4738 4.32 71.3218 4.224C71.1698 4.12 70.9938 4.008 70.7938 3.888C70.5938 3.768 70.3618 3.66 70.0978 3.564C69.8338 3.46 69.5258 3.376 69.1738 3.312C68.8298 3.24 68.4298 3.204 67.9738 3.204C67.1978 3.204 66.4858 3.344 65.8378 3.624C65.1978 3.896 64.6458 4.296 64.1818 4.824C63.7178 5.344 63.3578 5.984 63.1018 6.744C62.8458 7.496 62.7178 8.356 62.7178 9.324C62.7178 10.3 62.8538 11.168 63.1258 11.928C63.4058 12.688 63.7818 13.328 64.2538 13.848C64.7258 14.368 65.2818 14.768 65.9218 15.048C66.5618 15.32 67.2498 15.456 67.9858 15.456C68.4258 15.456 68.8218 15.432 69.1738 15.384C69.5338 15.336 69.8618 15.26 70.1578 15.156C70.4618 15.052 70.7458 14.92 71.0098 14.76C71.2818 14.592 71.5498 14.388 71.8138 14.148C71.8938 14.076 71.9778 14.02 72.0658 13.98C72.1538 13.932 72.2458 13.908 72.3418 13.908ZM77.8541 7.824C78.2381 7.088 78.6941 6.512 79.2221 6.096C79.7501 5.672 80.3741 5.46 81.0941 5.46C81.6621 5.46 82.1181 5.584 82.4621 5.832L82.2701 8.052C82.2301 8.196 82.1701 8.3 82.0901 8.364C82.0181 8.42 81.9181 8.448 81.7901 8.448C81.6701 8.448 81.4901 8.428 81.2501 8.388C81.0181 8.348 80.7901 8.328 80.5661 8.328C80.2381 8.328 79.9461 8.376 79.6901 8.472C79.4341 8.568 79.2021 8.708 78.9941 8.892C78.7941 9.068 78.6141 9.284 78.4541 9.54C78.3021 9.796 78.1581 10.088 78.0221 10.416V18H75.0581V5.688H76.7981C77.1021 5.688 77.3141 5.744 77.4341 5.856C77.5541 5.96 77.6341 6.152 77.6741 6.432L77.8541 7.824ZM89.6311 12.744C88.7751 12.784 88.0551 12.86 87.4711 12.972C86.8871 13.076 86.4191 13.212 86.0671 13.38C85.7151 13.548 85.4631 13.744 85.3111 13.968C85.1591 14.192 85.0831 14.436 85.0831 14.7C85.0831 15.22 85.2351 15.592 85.5391 15.816C85.8511 16.04 86.2551 16.152 86.7511 16.152C87.3591 16.152 87.8831 16.044 88.3231 15.828C88.7711 15.604 89.2071 15.268 89.6311 14.82V12.744ZM82.8391 7.404C84.2551 6.108 85.9591 5.46 87.9511 5.46C88.6711 5.46 89.3151 5.58 89.8831 5.82C90.4511 6.052 90.9311 6.38 91.3231 6.804C91.7151 7.22 92.0111 7.72 92.2111 8.304C92.4191 8.888 92.5231 9.528 92.5231 10.224V18H91.1791C90.8991 18 90.6831 17.96 90.5311 17.88C90.3791 17.792 90.2591 17.62 90.1711 17.364L89.9071 16.476C89.5951 16.756 89.2911 17.004 88.9951 17.22C88.6991 17.428 88.3911 17.604 88.0711 17.748C87.7511 17.892 87.4071 18 87.0391 18.072C86.6791 18.152 86.2791 18.192 85.8391 18.192C85.3191 18.192 84.8391 18.124 84.3991 17.988C83.9591 17.844 83.5791 17.632 83.2591 17.352C82.9391 17.072 82.6911 16.724 82.5151 16.308C82.3391 15.892 82.2511 15.408 82.2511 14.856C82.2511 14.544 82.3031 14.236 82.4071 13.932C82.5111 13.62 82.6791 13.324 82.9111 13.044C83.1511 12.764 83.4591 12.5 83.8351 12.252C84.2111 12.004 84.6711 11.788 85.2151 11.604C85.7671 11.42 86.4071 11.272 87.1351 11.16C87.8631 11.04 88.6951 10.968 89.6311 10.944V10.224C89.6311 9.4 89.4551 8.792 89.1031 8.4C88.7511 8 88.2431 7.8 87.5791 7.8C87.0991 7.8 86.6991 7.856 86.3791 7.968C86.0671 8.08 85.7911 8.208 85.5511 8.352C85.3111 8.488 85.0911 8.612 84.8911 8.724C84.6991 8.836 84.4831 8.892 84.2431 8.892C84.0351 8.892 83.8591 8.84 83.7151 8.736C83.5711 8.624 83.4551 8.496 83.3671 8.352L82.8391 7.404ZM106.18 7.908V14.58C106.18 14.964 106.276 15.264 106.468 15.48C106.66 15.696 106.916 15.804 107.236 15.804C107.42 15.804 107.572 15.784 107.692 15.744C107.82 15.696 107.928 15.648 108.016 15.6C108.112 15.552 108.196 15.508 108.268 15.468C108.34 15.42 108.412 15.396 108.484 15.396C108.572 15.396 108.644 15.42 108.7 15.468C108.756 15.508 108.816 15.572 108.88 15.66L109.768 17.1C109.336 17.46 108.84 17.732 108.28 17.916C107.728 18.1 107.152 18.192 106.552 18.192C105.48 18.192 104.656 17.892 104.08 17.292C103.504 16.684 103.216 15.848 103.216 14.784V7.908H98.2117V18H95.2477V7.92L94.1797 7.752C93.9477 7.704 93.7597 7.624 93.6157 7.512C93.4797 7.392 93.4117 7.224 93.4117 7.008V5.796H95.2477V4.884C95.2477 4.18 95.3517 3.548 95.5597 2.988C95.7757 2.428 96.0797 1.952 96.4717 1.56C96.8717 1.168 97.3557 0.868 97.9237 0.659999C98.4917 0.451999 99.1317 0.347999 99.8437 0.347999C100.412 0.347999 100.94 0.423999 101.428 0.576L101.368 2.064C101.36 2.176 101.328 2.268 101.272 2.34C101.216 2.404 101.14 2.456 101.044 2.496C100.956 2.528 100.852 2.552 100.732 2.568C100.612 2.576 100.484 2.58 100.348 2.58C99.9957 2.58 99.6797 2.62 99.3997 2.7C99.1277 2.772 98.8957 2.904 98.7037 3.096C98.5117 3.28 98.3637 3.528 98.2597 3.84C98.1637 4.144 98.1157 4.524 98.1157 4.98V5.796H103.348L103.984 2.424C104.024 2.264 104.1 2.14 104.212 2.052C104.324 1.964 104.468 1.92 104.644 1.92H106.18V5.796H109.468V7.908H106.18Z" fill="#2196F3"/>
</svg>
