<svg width="29" height="26" viewBox="0 0 29 26" fill="none" xmlns="http://www.w3.org/2000/svg">
<path d="M15.2082 6.14359C15.0449 6.09499 14.9519 5.92369 15.0006 5.76073C15.5678 3.85856 17.3345 2.46191 19.4365 2.46191C19.6069 2.46191 19.7451 2.59979 19.7451 2.76978C19.7451 2.93977 19.6069 3.07765 19.4365 3.07765C17.6748 3.07765 16.0938 4.25305 15.5919 5.93618C15.5436 6.09891 15.3722 6.19238 15.2082 6.14356L15.2082 6.14359Z" fill="url(#paint0_linear_244_949)"/>
<path d="M23.7554 17.8554H21.9044C21.7341 17.8554 21.5959 17.7176 21.5959 17.5476C21.5959 17.3776 21.7341 17.2397 21.9044 17.2397H23.7554C26.307 17.2397 28.3831 15.168 28.3831 12.6217C28.3831 10.0755 26.307 8.00371 23.7554 8.00371H23.7109C23.6215 8.00371 23.5364 7.96501 23.4778 7.8975C23.4192 7.82999 23.3927 7.74049 23.4055 7.65208C23.4331 7.46033 23.4469 7.26769 23.4469 7.08012C23.4469 4.87338 21.6476 3.07783 19.4363 3.07783C18.576 3.07783 17.7556 3.34611 17.0636 3.85387C16.9116 3.96536 16.6956 3.91588 16.6077 3.74897C14.648 0.0251179 9.52949 -0.474958 6.87581 2.76447C5.75793 4.12919 5.31869 5.90448 5.67066 7.63473C5.70944 7.82583 5.56289 8.00395 5.36831 8.00395H5.24469C2.69312 8.00395 0.617049 10.0757 0.617049 12.6219C0.617049 15.1682 2.69312 17.2399 5.24469 17.2399H7.09572C7.26606 17.2399 7.40424 17.3778 7.40424 17.5478C7.40424 17.7178 7.26607 17.8557 7.09572 17.8557H5.24469C2.35283 17.8557 0 15.5078 0 12.6219C0 9.81705 2.22257 7.52035 5.00251 7.39368C4.74138 5.59858 5.24072 3.78788 6.39806 2.3748C9.2392 -1.09375 14.684 -0.704971 16.9857 3.16272C17.72 2.70333 18.5602 2.46234 19.4362 2.46234C22.1154 2.46234 24.2384 4.73793 24.0526 7.39655C26.8069 7.55071 29 9.83529 29 12.6217C29 15.5078 26.6472 17.8555 23.7553 17.8555L23.7554 17.8554Z" fill="url(#paint1_linear_244_949)"/>
<path d="M14.4587 25.0705C10.2059 25.0705 6.74586 21.6178 6.74586 17.3738C6.74586 13.1298 10.2058 9.677 14.4587 9.677C18.7116 9.677 22.1715 13.1297 22.1715 17.3738C22.1715 21.6177 18.7116 25.0705 14.4587 25.0705ZM14.4587 10.2929C10.5461 10.2929 7.36303 13.4694 7.36303 17.3738C7.36303 21.2782 10.5462 24.4546 14.4587 24.4546C18.3712 24.4546 21.5544 21.2781 21.5544 17.3738C21.5544 13.4694 18.3712 10.2929 14.4587 10.2929Z" fill="url(#paint2_linear_244_949)"/>
<path d="M14.5997 20.6975C14.475 20.6975 14.3739 20.5966 14.3739 20.4721V14.6119C14.3739 14.4874 14.475 14.3865 14.5997 14.3865C14.7244 14.3865 14.8256 14.4874 14.8256 14.6119V20.4721C14.8256 20.5968 14.7244 20.6975 14.5997 20.6975Z" fill="url(#paint3_linear_244_949)"/>
<path d="M16.4066 16.6409C16.3488 16.6409 16.2909 16.6189 16.2469 16.5749L14.5997 14.9312L12.9525 16.5749C12.8644 16.663 12.7213 16.663 12.6331 16.5749C12.5448 16.4868 12.5448 16.3442 12.6331 16.2561L14.44 14.453C14.528 14.3649 14.6711 14.3649 14.7594 14.453L16.5663 16.2561C16.6545 16.3442 16.6545 16.4868 16.5663 16.5749C16.5222 16.619 16.4643 16.6409 16.4066 16.6409H16.4066Z" fill="url(#paint4_linear_244_949)"/>
<defs>
<linearGradient id="paint0_linear_244_949" x1="17.3664" y1="2.46191" x2="17.3664" y2="6.15651" gradientUnits="userSpaceOnUse">
<stop stop-color="#6195FF"/>
<stop offset="1" stop-color="#415FFF"/>
</linearGradient>
<linearGradient id="paint1_linear_244_949" x1="14.5" y1="0" x2="14.5" y2="17.8557" gradientUnits="userSpaceOnUse">
<stop stop-color="#6195FF"/>
<stop offset="1" stop-color="#415FFF"/>
</linearGradient>
<linearGradient id="paint2_linear_244_949" x1="14.4587" y1="9.677" x2="14.4587" y2="25.0705" gradientUnits="userSpaceOnUse">
<stop stop-color="#6195FF"/>
<stop offset="1" stop-color="#415FFF"/>
</linearGradient>
<linearGradient id="paint3_linear_244_949" x1="14.5997" y1="14.3865" x2="14.5997" y2="20.6975" gradientUnits="userSpaceOnUse">
<stop stop-color="#6195FF"/>
<stop offset="1" stop-color="#415FFF"/>
</linearGradient>
<linearGradient id="paint4_linear_244_949" x1="14.5997" y1="14.387" x2="14.5997" y2="16.641" gradientUnits="userSpaceOnUse">
<stop stop-color="#6195FF"/>
<stop offset="1" stop-color="#415FFF"/>
</linearGradient>
</defs>
</svg>
